<svg width="28" height="28" viewBox="0 0 28 28" fill="none" xmlns="http://www.w3.org/2000/svg">
<circle cx="14" cy="14" r="12.25" fill="black"/>
<path d="M14.0007 0C6.30039 0 0 6.30039 0 14.0007C0 21.6996 6.30039 28 14.0007 28C21.6996 28 28 21.6996 28 14.0007C28 6.30039 21.7697 0 14.0007 0ZM20.4398 20.2296C20.161 20.6486 19.6705 20.7901 19.2487 20.5113C15.957 18.4794 11.8272 18.059 6.92678 19.1786C6.43912 19.3216 6.01872 18.9712 5.87858 18.5494C5.73705 18.059 6.08738 17.6414 6.50918 17.4998C11.8272 16.3087 16.4488 16.8006 20.0881 19.0413C20.5786 19.2501 20.6486 19.8092 20.4398 20.2296ZM22.1214 16.3802C21.7697 16.8692 21.1405 17.0794 20.6486 16.7291C16.8692 14.4225 11.1308 13.719 6.72079 15.1204C6.16305 15.2619 5.52965 14.9802 5.39092 14.4225C5.24939 13.8592 5.53105 13.2286 6.09019 13.0884C11.1994 11.5498 17.5012 12.3205 21.8397 14.9816C22.2601 15.1904 22.4703 15.8897 22.1214 16.3802ZM22.2601 12.4578C17.7801 9.79951 10.29 9.51924 6.01872 10.8519C5.6939 10.9455 5.3455 10.9104 5.04592 10.7538C4.74633 10.5972 4.51858 10.3312 4.40999 10.0111C4.31473 9.6859 4.34889 9.33645 4.50533 9.03584C4.66177 8.73524 4.92838 8.50675 5.24939 8.39818C10.2199 6.92818 18.4107 7.20705 23.5914 10.2914C24.2206 10.6403 24.4308 11.4811 24.0805 12.1103C23.7301 12.6008 22.8907 12.8082 22.2601 12.4578Z" fill="#1ED760"/>
</svg>
