<svg width="24" height="24" viewBox="0 0 24 24" fill="none" xmlns="http://www.w3.org/2000/svg">
<path d="M23.707 0.180952C23.5226 0.0290317 23.2789 -0.0311283 23.043 0.0153517L7.04296 3.21535C6.66952 3.28991 6.4 3.61839 6.4 3.99967V8.79967V16.8202C5.72936 16.3125 4.90392 15.9997 4 15.9997C1.79456 15.9997 0 17.7942 0 19.9997C0 22.2051 1.79456 23.9997 4 23.9997C6.20544 23.9997 8 22.2051 8 19.9997V9.45543L22.4 6.57543V14.4201C21.7294 13.9125 20.9039 13.5997 20 13.5997C17.7946 13.5997 16 15.3942 16 17.5997C16 19.8051 17.7946 21.5997 20 21.5997C22.2054 21.5997 24 19.8051 24 17.5997V5.59967V0.799672C24 0.559832 23.8922 0.332872 23.707 0.180952Z" fill="white" fill-opacity="0.25"/>
</svg>
