<svg width="31" height="28" viewBox="0 0 31 28" fill="none" xmlns="http://www.w3.org/2000/svg">
<path d="M30.4114 15.7753L25.6776 4.68497C25.0877 3.30581 24.0187 2.18604 22.6672 1.53148C21.3157 0.876915 19.7725 0.731545 18.3212 1.12209L4.65592 4.78369C1.65439 5.58795 -0.305758 8.46876 0.0665233 11.5474L1.51216 23.5189C1.61099 24.3459 1.96817 25.1207 2.53303 25.7333C3.09789 26.3458 3.84177 26.7652 4.65919 26.9318C5.47661 27.0984 6.32608 27.0038 7.08714 26.6614C7.8482 26.3191 8.48222 25.7464 8.8993 25.0245L11.4005 20.7241L20.4504 18.2992L24.7516 20.7768C25.6692 21.3054 26.7585 21.4492 27.7691 21.1784C30.1221 20.5479 31.3644 18.0046 30.4114 15.7753ZM12.4004 12.3891L9.38376 13.1974L10.1905 16.2081L8.68216 16.6122L7.87545 13.6015L4.85883 14.4098L4.45548 12.9045L7.4721 12.0962L6.66539 9.08551L8.1737 8.68136L8.98041 11.692L11.997 10.8837L12.4004 12.3891ZM18.0303 9.26713C17.2007 9.48942 16.3404 8.99388 16.1186 8.16594C15.8968 7.33801 16.394 6.47874 17.2236 6.25645C18.0531 6.03417 18.9134 6.52971 19.1352 7.35764C19.3571 8.18558 18.8598 9.04485 18.0303 9.26713ZM22.2569 12.9748C21.4274 13.1971 20.5671 12.7016 20.3453 11.8737C20.1234 11.0457 20.6207 10.1865 21.4502 9.96417C22.2798 9.74189 23.1401 10.2374 23.3619 11.0654C23.5837 11.8933 23.0865 12.7526 22.2569 12.9748Z" fill="white" fill-opacity="0.25"/>
</svg>
