<svg viewBox="0 0 24 22" xmlns="http://www.w3.org/2000/svg">
<path d="M24 9.11019L22.9355 10.5639L12 2.32605L1.06452 10.5639L0 9.11019L12 6.10352e-05L24 9.11019ZM18.9677 12.1146H20.8065V20.0617C20.8065 21.1278 19.9355 22.0001 18.871 22.0001H15.7742H8.22581H5.12903C4.06452 22.0001 3.19355 21.1278 3.19355 20.0617V12.1146H5.03226V20.0617H8.12903V13.7622C8.12903 12.6961 9 11.8238 10.0645 11.8238H13.9355C15 11.8238 15.871 12.6961 15.871 13.7622V20.0617H18.9677V12.1146ZM10.0645 20.0617H14.0323V13.6653H10.1613L10.0645 20.0617Z"/>
</svg>
