<svg width="72" height="62" viewBox="0 0 72 62" fill="none" xmlns="http://www.w3.org/2000/svg">
    <path d="M64.7 48.2C65.1 48.6 65.1 49.1 64.7 49.4C64.3 49.8 63.8 49.8 63.5 49.4L60.7 46.6V55.4C60.7 55.8 60.3 56.3 59.8 56.3C59.3 56.3 58.9 55.9 58.9 55.4V46.6L56.1 49.4C55.9 49.6 55.7 49.7 55.5 49.7C55.2 49.7 55.1 49.6 54.9 49.4C54.5 49 54.5 48.5 54.9 48.2L59.2 43.9C59.3 43.8 59.4 43.7 59.5 43.7C59.7 43.6 59.9 43.6 60.2 43.7C60.3 43.7 60.4 43.8 60.5 43.9L64.7 48.2ZM71.9 49.9C71.9 56.6 66.5 62 59.8 62C53.5 62 48.2 57 47.8 50.8H8.6C7.1 50.8 6 49.6 6 48.2V8.6C6 7.2 7.1 6 8.6 6H58C59.5 6 60.6 7.2 60.6 8.6V37.9C66.9 38.3 71.8 43.6 71.9 49.9ZM7.7 40.3L21.3 30.4C21.7 30.1 22.2 30.2 22.4 30.5L29.5 37.5L45 23.1C45.3 22.8 45.8 22.8 46.1 23.1L58.9 34.3V8.6C58.9 8.2 58.5 7.7 58 7.7H8.6C8.1 7.7 7.7 8.1 7.7 8.6V40.3ZM47.8 49C48.2 43 53 38.3 58.9 37.9V36.6L45.6 24.9L30.2 39.3C29.8 39.7 29.3 39.7 29 39.3L21.8 32.2L7.8 42.4V48.2C7.8 48.6 8.2 49.1 8.7 49.1H47.8V49ZM70.1 49.9C70.1 44.2 65.5 39.6 59.8 39.6C54.2 39.6 49.5 44.2 49.5 49.9C49.5 55.6 54.1 60.2 59.8 60.2C65.5 60.2 70.1 55.6 70.1 49.9ZM48 0.9C48 0.4 47.6 0 47.1 0H2.6C1.1 0 0 1.2 0 2.6V31.1C0 31.6 0.4 32 0.9 32C1.4 32 1.8 31.6 1.8 31.1V2.6C1.8 2.2 2.2 1.7 2.7 1.7H47.2C47.6 1.8 48 1.4 48 0.9ZM27.1 17.9C27.1 14.8 24.6 12.4 21.6 12.4C18.4 12.4 16 14.9 16 17.9C16 21.1 18.5 23.5 21.6 23.5C24.7 23.5 27.1 21.1 27.1 17.9ZM25.4 17.9C25.4 20 23.7 21.8 21.6 21.8C19.5 21.8 17.7 20 17.7 17.9C17.7 15.9 19.5 14.1 21.6 14.1C23.7 14.2 25.4 15.8 25.4 17.9Z" fill="white" fill-opacity="0.38"/>
</svg>
