<svg width="18" height="18" viewBox="0 0 18 18" fill="none" xmlns="http://www.w3.org/2000/svg">
<path d="M8.32498 17.0163L17.189 8.14993C17.2289 8.11008 17.2476 8.05618 17.2429 8.00227L16.6453 0.938206C16.6289 0.755393 16.4859 0.612424 16.3031 0.596018L9.23904 0.00070549C9.18513 -0.00398201 9.12889 0.0147679 9.09138 0.0546116L0.22732 8.91867C0.192426 8.95391 0.172852 9.0015 0.172852 9.0511C0.172852 9.10069 0.192426 9.14828 0.22732 9.18352L8.06013 17.0163C8.13279 17.0913 8.25232 17.0913 8.32498 17.0163ZM9.79216 1.74211L15.0562 2.18742L15.5015 7.45149L8.19138 14.7593L2.48201 9.05227L9.79216 1.74211ZM11.2022 6.10688C11.3066 6.21134 11.4307 6.2942 11.5672 6.35073C11.7037 6.40726 11.85 6.43635 11.9977 6.43634C12.1455 6.43633 12.2918 6.40722 12.4282 6.35067C12.5647 6.29412 12.6888 6.21124 12.7932 6.10676C12.8977 6.00228 12.9805 5.87825 13.0371 5.74175C13.0936 5.60525 13.1227 5.45895 13.1227 5.31121C13.1227 5.16347 13.0936 5.01717 13.037 4.88068C12.9805 4.74419 12.8976 4.62017 12.7931 4.51571C12.6886 4.41124 12.5646 4.32838 12.4281 4.27185C12.2916 4.21532 12.1453 4.18624 11.9976 4.18625C11.8498 4.18626 11.7035 4.21537 11.567 4.27192C11.4305 4.32847 11.3065 4.41135 11.202 4.51582C11.0976 4.6203 11.0147 4.74433 10.9582 4.88083C10.9017 5.01733 10.8726 5.16363 10.8726 5.31138C10.8726 5.45912 10.9017 5.60541 10.9583 5.7419C11.0148 5.8784 11.0977 6.00242 11.2022 6.10688Z" fill="#079CF0"/>
</svg>
