<svg width="12" height="16" viewBox="0 0 12 16" fill="none" xmlns="http://www.w3.org/2000/svg">
<path fill-rule="evenodd" clip-rule="evenodd" d="M0 5.6C0 2.504 2.68286 0 6 0C9.31714 0 12 2.504 12 5.6C12 9.8 6 16 6 16C6 16 0 9.8 0 5.6ZM6 1.6C3.63429 1.6 1.71429 3.392 1.71429 5.6C1.71429 7.88 4.21714 11.368 6 13.504C7.81714 11.352 10.2857 7.904 10.2857 5.6C10.2857 3.392 8.36571 1.6 6 1.6ZM8 6C8 7.10457 7.10457 8 6 8C4.89543 8 4 7.10457 4 6C4 4.89543 4.89543 4 6 4C7.10457 4 8 4.89543 8 6Z" fill="#079CF0"/>
</svg>
