<svg width="24" height="24" viewBox="0 0 24 24" fill="none" xmlns="http://www.w3.org/2000/svg">
<path d="M22.8 2.4H19.2V1.2C19.2 0.88174 19.0736 0.576515 18.8485 0.351472C18.6235 0.126428 18.3183 0 18 0L6 0C5.68174 0 5.37652 0.126428 5.15147 0.351472C4.92643 0.576515 4.8 0.88174 4.8 1.2V2.4H1.2C0.88174 2.4 0.576515 2.52643 0.351472 2.75147C0.126428 2.97652 0 3.28174 0 3.6L0 7.2C0 12.372 2.1588 15.492 5.7828 15.6144C6.31333 16.5262 7.0377 17.3102 7.90467 17.9111C8.77164 18.5121 9.76005 18.9152 10.8 19.092V21.6H8.4V24H15.6V21.6H13.2V19.092C14.2397 18.9145 15.2278 18.5111 16.0947 17.9102C16.9616 17.3094 17.6861 16.5257 18.2172 15.6144C21.8412 15.492 24 12.372 24 7.2V3.6C24 3.28174 23.8736 2.97652 23.6485 2.75147C23.4235 2.52643 23.1183 2.4 22.8 2.4ZM2.4 7.2V4.8H4.8V12.996C2.6592 12.0936 2.4 8.7588 2.4 7.2ZM19.2 12.996V4.8H21.6V7.2C21.6 8.7588 21.3408 12.0936 19.2 12.996Z" fill="white" fill-opacity="0.25"/>
</svg>
