<?xml version="1.0" encoding="utf-8"?>
<!-- Generator: Adobe Illustrator 24.1.0, SVG Export Plug-In . SVG Version: 6.00 Build 0)  -->
<svg version="1.1" id="Layer_1" xmlns="http://www.w3.org/2000/svg" xmlns:xlink="http://www.w3.org/1999/xlink" x="0px" y="0px"
	 viewBox="0 0 66 56" style="enable-background:new 0 0 66 56;" xml:space="preserve">
<style type="text/css">
	.st0{fill:#FFFFFF;fill-opacity:0.38;}
</style>
<path class="st0" d="M58.7,43.4c-0.4,0.4-0.9,0.4-1.2,0l-2.8-2.8v8.8c0,0.4-0.4,0.9-0.9,0.9c-0.5,0-0.9-0.4-0.9-0.9v-8.8l-2.8,2.8
	c-0.2,0.2-0.4,0.3-0.6,0.3c-0.3,0-0.4-0.1-0.6-0.3c-0.4-0.4-0.4-0.9,0-1.2l4.3-4.3c0.1-0.1,0.2-0.2,0.3-0.2c0.2-0.1,0.4-0.1,0.7,0
	c0.1,0,0.2,0.1,0.3,0.2l4.3,4.3C59.1,42.5,59.1,43,58.7,43.4z M15.6,17.5c-3.1,0-5.6-2.5-5.6-5.6c0-3.1,2.5-5.5,5.6-5.5
	c3.1,0,5.5,2.5,5.5,5.5C21.1,15.1,18.7,17.5,15.6,17.5z M15.6,8.2c-2.1,0-3.9,1.8-3.9,3.8c0,2,1.8,3.9,3.9,3.9s3.8-1.8,3.8-3.9
	S17.7,8.2,15.6,8.2z M54.7,31.9V2.6c0-1.4-1.1-2.6-2.6-2.6H2.6C1.1,0,0,1.2,0,2.6v39.5c0,1.4,1.1,2.6,2.6,2.6h39.2
	C42.2,51,47.5,56,53.8,56c6.7,0,12.1-5.4,12.1-12.1C65.8,37.6,60.9,32.3,54.7,31.9z M1.8,2.6c0-0.4,0.4-0.9,0.9-0.9h49.4
	c0.5,0,0.9,0.4,0.9,0.9v25.7L40.1,17.1c-0.4-0.3-0.9-0.3-1.1,0L23.6,31.5l-7.1-7c-0.3-0.3-0.8-0.4-1.1-0.1L1.8,34.3V2.6z M2.6,43
	c-0.5,0-0.9-0.4-0.9-0.9v-5.8l14-10.2l7.2,7.1c0.4,0.4,0.9,0.4,1.2,0l15.4-14.4l13.3,11.7v1.3c-6,0.4-10.7,5.2-11.1,11.1H2.6z
	 M53.8,54.2c-5.7,0-10.3-4.6-10.3-10.3s4.6-10.3,10.3-10.3c5.7,0,10.3,4.6,10.3,10.3C64.1,49.6,59.5,54.2,53.8,54.2z"/>
</svg>
