<svg width="16" height="16" viewBox="0 0 16 16" fill="none" xmlns="http://www.w3.org/2000/svg">
<path d="M8 0C3.58214 0 0 3.58214 0 8C0 12.4179 3.58214 16 8 16C12.4179 16 16 12.4179 16 8C16 3.58214 12.4179 0 8 0ZM8 14.6429C4.33214 14.6429 1.35714 11.6679 1.35714 8C1.35714 4.33214 4.33214 1.35714 8 1.35714C11.6679 1.35714 14.6429 4.33214 14.6429 8C14.6429 11.6679 11.6679 14.6429 8 14.6429Z" fill="#079CF0"/>
<path d="M11.1212 10.2608L8.57478 8.41968V4.00003C8.57478 3.92146 8.5105 3.85718 8.43193 3.85718H7.573C7.49443 3.85718 7.43015 3.92146 7.43015 4.00003V8.91789C7.43015 8.96432 7.45157 9.00718 7.48907 9.03397L10.4426 11.1875C10.5069 11.234 10.5962 11.2197 10.6426 11.1572L11.1533 10.4608C11.1998 10.3947 11.1855 10.3054 11.1212 10.2608Z" fill="#079CF0"/>
</svg>
