<svg width="22" height="24" viewBox="0 0 22 24" fill="none" xmlns="http://www.w3.org/2000/svg">
<path d="M14.1273 3C16.2619 3 18.2756 3.9195 19.7982 5.589L22 3.561C19.9042 1.2645 17.1083 0 14.1273 0C11.1448 0 8.35039 1.2645 6.25757 3.5625C5.21503 4.7079 4.40252 6.04489 3.8647 7.5H0V10.5H3.15565C3.09893 10.995 3.06012 11.4945 3.06012 12C3.06012 12.5055 3.09893 13.005 3.15565 13.5H0V16.5H3.8647C4.40508 17.955 5.20966 19.2915 6.25757 20.439C8.35039 22.7355 11.1448 24 14.1273 24C17.1083 24 19.9042 22.7355 21.9985 20.439L19.7967 18.411C18.2756 20.0805 16.2619 21 14.1273 21C11.9927 21 9.98046 20.082 8.45786 18.411C7.94672 17.833 7.51267 17.1906 7.16664 16.5H13.4347V13.5H6.17845C6.10381 13.008 6.0456 12.51 6.0456 12C6.0456 11.49 6.10381 10.992 6.17845 10.5H13.4347V7.5H7.16664C7.5249 6.8145 7.9369 6.1605 8.45786 5.589C9.98046 3.9195 11.9927 3 14.1273 3Z" />
</svg>
