<svg viewBox="0 0 22 24" xmlns="http://www.w3.org/2000/svg">
<path d="M11.101 12.6474C7.56731 12.6474 4.63942 9.85898 4.63942 6.27392C4.63942 2.78844 7.56731 6.10352e-05 11.101 6.10352e-05C14.6346 6.10352e-05 17.5625 2.78844 17.5625 6.37351C17.4615 9.85898 14.6346 12.6474 11.101 12.6474ZM11.101 1.69301C8.47596 1.69301 6.45673 3.78429 6.45673 6.27392C6.45673 8.86313 8.57692 10.8548 11.101 10.8548C13.726 10.8548 15.7452 8.76355 15.7452 6.27392C15.7452 3.78429 13.625 1.69301 11.101 1.69301ZM21.5 22.3071C21.5 17.6266 17.6635 13.8424 12.9183 13.8424H9.08173C4.33654 13.942 0.5 17.7262 0.5 22.3071V24.0001H2.41827V22.3071C2.41827 18.7221 5.34615 15.8341 8.98077 15.8341H12.9183C16.5529 15.8341 19.4808 18.7221 19.4808 22.3071V24.0001H21.5V22.3071Z" />
</svg>
