<svg viewBox="0 0 24 24" xmlns="http://www.w3.org/2000/svg">
<path d="M10.7 1.80006L22.1 13.2001C22.2 13.3001 22.2 13.5001 22.1 13.6001L13.5 22.2001C13.4 22.3001 13.4 22.3001 13.3 22.3001C13.3 22.3001 13.2 22.3001 13.1 22.2001L1.8 10.7001V1.80006H10.7ZM11 6.10352e-05H1C0.5 6.10352e-05 0 0.400061 0 1.00006V11.0001C0 11.3001 0.1 11.5001 0.3 11.7001L12 23.4001C12.4 23.8001 12.9 24.0001 13.4 24.0001C13.9 24.0001 14.4 23.8001 14.8 23.4001L23.4 14.8001C24.2 14.0001 24.2 12.8001 23.4 12.0001L11.7 0.300061C11.5 0.100061 11.3 6.10352e-05 11 6.10352e-05ZM6.6 4.90006C7 4.90006 7.4 5.10006 7.7 5.30006C7.9 5.70006 8.1 6.00006 8.1 6.40006C8.1 6.80006 7.9 7.20006 7.7 7.50006C7.4 7.80006 7 7.90006 6.6 7.90006C6.2 7.90006 5.8 7.70006 5.5 7.50006C5.2 7.20006 5.1 6.80006 5.1 6.40006C5.1 6.00006 5.3 5.60006 5.5 5.30006C5.8 5.10006 6.2 4.90006 6.6 4.90006ZM6.6 3.70006C5.9 3.70006 5.2 4.00006 4.7 4.50006C3.6 5.60006 3.6 7.30006 4.7 8.40006C5.2 8.90006 5.9 9.20006 6.6 9.20006C7.3 9.20006 8 8.90006 8.5 8.40006C9.6 7.30006 9.6 5.60006 8.5 4.50006C8 3.90006 7.3 3.70006 6.6 3.70006ZM15.3 10.5001L14.4 9.60006L9.3 14.7001L10.2 15.6001L15.3 10.5001ZM17.6 12.7001L16.7 11.8001L11.6 17.0001L12.5 17.9001L17.6 12.7001Z" />
</svg>
