<?xml version="1.0" encoding="UTF-8" standalone="no"?>
<!DOCTYPE svg PUBLIC "-//W3C//DTD SVG 1.1//EN" "http://www.w3.org/Graphics/SVG/1.1/DTD/svg11.dtd">
<svg width="100%" height="100%" viewBox="0 0 24 24" version="1.1" xmlns="http://www.w3.org/2000/svg" xmlns:xlink="http://www.w3.org/1999/xlink" xml:space="preserve" xmlns:serif="http://www.serif.com/" style="fill-rule:evenodd;clip-rule:evenodd;stroke-linejoin:round;stroke-miterlimit:2;">
    <g>
        <path d="M3.187,22.012L14.815,22.012L3.187,22.012ZM1.057,22.012L1.022,22.012C0.454,22.012 -0.008,21.551 -0.008,20.982L-0.008,19.018C-0.008,16.236 2.25,13.979 5.031,13.979L12.961,13.979C15.747,13.979 18.008,16.24 18.008,19.026L18.008,20.972C18.008,21.542 17.549,22.005 16.981,22.012L16.981,22.012C16.981,22.012 15.995,22.015 15.994,21.03C15.994,20.992 15.993,20.957 15.989,20.925L15.989,18.979C15.989,17.337 14.656,16.004 13.014,16.004L4.987,16.004C3.341,16.004 2.004,17.341 2.004,18.987L2.004,20.99C2.003,21.004 2.003,21.017 2.003,21.032C2.003,21.897 1.242,22 1.057,22.012Z"/>
        <path d="M8.964,1.969C11.743,1.969 14,4.225 14,7.005C14,9.784 11.743,12.04 8.964,12.04C6.185,12.04 3.928,9.784 3.928,7.005C3.928,4.225 6.185,1.969 8.964,1.969ZM8.969,3.965C10.649,3.965 12.014,5.329 12.014,7.01C12.014,8.69 10.649,10.054 8.969,10.054C7.289,10.054 5.924,8.69 5.924,7.01C5.924,5.329 7.289,3.965 8.969,3.965Z"/>
        <path d="M15.648,10.007C17,9.697 18.01,8.485 18.01,7.039C18.01,5.613 17.027,4.414 15.702,4.085L15.53,4.014L15.392,3.924L15.282,3.826L15.163,3.677L15.076,3.513L15.031,3.378L15.005,3.224L15.004,3.047L15.037,2.862L15.098,2.698L15.19,2.544L15.292,2.423L15.436,2.304L15.621,2.204L15.776,2.155L15.959,2.131L16.16,2.143C18.361,2.681 19.997,4.668 19.997,7.035C19.997,9.408 18.351,11.4 16.14,11.931L15.949,11.943L15.766,11.918L15.611,11.869L15.426,11.769L15.282,11.65L15.179,11.529L15.088,11.375L15.026,11.212L14.993,11.026L14.995,10.85L15.021,10.695L15.066,10.56L15.153,10.397L15.272,10.247L15.382,10.149L15.52,10.06L15.648,10.007Z"/>
        <path d="M18.997,22.012L20.815,22.012L18.997,22.012ZM20.112,14.135L20.114,14.136L20.518,14.239L20.934,14.392L21.415,14.615C22.962,15.478 24.008,17.131 24.008,19.026L24.008,20.972C24.008,21.542 23.549,22.005 22.981,22.012L22.981,22.012C22.981,22.012 21.995,22.015 21.994,21.03C21.994,20.992 21.993,20.957 21.989,20.925L21.989,18.979C21.989,17.572 21.01,16.392 19.697,16.083L19.523,16.009L19.364,15.902L19.243,15.784L19.135,15.632L19.069,15.496L19.021,15.336L19.001,15.167L19,15.117L18.997,15.116L18.997,15.114L18.999,15.116L19.025,14.905L19.066,14.772L19.158,14.59L19.281,14.435L19.407,14.325L19.52,14.256L19.694,14.185L19.902,14.141L20.111,14.138L20.112,14.135Z"/>
    </g>
</svg>
