<svg viewBox="0 0 17 18" version="1.1" xmlns="http://www.w3.org/2000/svg" xmlns:xlink="http://www.w3.org/1999/xlink" style="fill-rule:evenodd;clip-rule:evenodd;stroke-linejoin:round;stroke-miterlimit:2;">
    <path d="M13.791,1.846C15.091,1.846 16.147,2.902 16.147,4.203L16.147,15.394C16.147,16.695 15.091,17.751 13.791,17.751L2.607,17.751C1.306,17.751 0.251,16.695 0.251,15.394L0.251,4.203C0.251,2.902 1.306,1.846 2.607,1.846L13.791,1.846ZM13.802,3.349L2.566,3.349C2.11,3.349 1.74,3.72 1.74,4.176L1.74,15.419C1.74,15.876 2.11,16.246 2.566,16.246L13.802,16.246C14.258,16.246 14.628,15.876 14.628,15.419L14.628,4.176C14.628,3.72 14.258,3.349 13.802,3.349Z"/>
    <path d="M11.389,0.252C11.389,0.252 12.17,0.265 12.157,1.008C12.144,1.752 12.154,4.141 12.154,4.141C12.154,4.141 12.145,4.917 11.399,4.932C10.653,4.947 10.657,4.139 10.657,4.139L10.653,1.007C10.653,1.007 10.608,0.252 11.389,0.252Z"/>
    <g transform="matrix(1,0,0,1,-6.39807,0.0205078)">
        <path d="M11.389,0.252C11.389,0.252 12.17,0.265 12.157,1.008C12.144,1.752 12.154,4.141 12.154,4.141C12.154,4.141 12.145,4.917 11.399,4.932C10.653,4.947 10.657,4.139 10.657,4.139L10.653,1.007C10.653,1.007 10.608,0.252 11.389,0.252Z"/>
    </g>
    <g transform="matrix(6.12323e-17,1,-1,6.12323e-17,5.1954,-4.01239)">
        <path d="M11.389,-10.948C11.389,-10.948 12.17,-10.936 12.157,-10.192C12.144,-9.448 12.154,4.141 12.154,4.141C12.154,4.141 12.145,4.917 11.399,4.932C10.653,4.947 10.657,4.139 10.657,4.139L10.653,-10.193C10.653,-10.193 10.608,-10.949 11.389,-10.948Z"/>
    </g>
</svg>
