<svg height="464pt" viewBox="0 -8 464.057 464" width="464pt" xmlns="http://www.w3.org/2000/svg"><path d="m410.515625 40.71875h-4.832031v-30.691406c0-5.523438-4.480469-10.0000002-10-10.0000002h-82.355469c-5.523437 0-10 4.4765622-10 10.0000002v30.691406h-142.601563v-30.691406c0-5.523438-4.476562-10.0000002-10-10.0000002h-82.351562c-5.523438 0-10 4.4765622-10 10.0000002v30.691406h-4.832031c-29.558594.03125-53.511719 23.984375-53.542969 53.539062v300.230469c.03125 29.554688 23.984375 53.507813 53.542969 53.539063h356.972656c29.554687-.03125 53.507813-23.984375 53.542969-53.539063v-300.230469c-.035156-29.554687-23.988282-53.507812-53.542969-53.539062zm-87.1875-20.691406h62.359375v55.074218h-62.359375zm-244.953125 0h62.359375v55.074218h-62.359375zm-24.832031 40.691406h4.832031v24.382812c0 5.523438 4.476562 10 10 10h82.359375c5.519531 0 10-4.476562 10-10v-24.382812h142.59375v24.382812c0 5.523438 4.476563 10 10 10h82.359375c5.523438 0 10-4.476562 10-10v-24.382812h4.832031c18.515625.019531 33.519531 15.023438 33.542969 33.539062v51.644532h-424.0625v-51.644532c.023438-18.515624 15.027344-33.519531 33.542969-33.539062zm356.972656 367.308594h-356.972656c-18.515625-.019532-33.523438-15.023438-33.542969-33.539063v-228.585937h424.054688v228.585937c-.019532 18.515625-15.023438 33.519531-33.539063 33.539063zm0 0"/><path d="m269.371094 294.160156h-29.722656v-46.917968c0-5.523438-4.480469-10-10-10-5.523438 0-10 4.476562-10 10v56.917968c0 5.519532 4.476562 10 10 10h39.722656c5.523437 0 10-4.480468 10-10 0-5.523437-4.476563-10-10-10zm0 0"/><path d="m232.027344 192.277344c-56.371094 0-102.070313 45.699218-102.066406 102.070312 0 56.371094 45.695312 102.070313 102.070312 102.070313 56.371094 0 102.066406-45.699219 102.066406-102.070313-.0625-56.34375-45.722656-102.007812-102.070312-102.070312zm0 184.140625c-45.324219 0-82.070313-36.746094-82.066406-82.070313 0-45.328125 36.742187-82.070312 82.070312-82.070312 45.324219 0 82.066406 36.746094 82.066406 82.070312-.050781 45.304688-36.765625 82.019532-82.070312 82.070313zm0 0"/></svg>