<svg viewBox="0 0 16 18" xmlns="http://www.w3.org/2000/svg">
<path d="M3.83333 8.16667H5.5V9.83333H3.83333V8.16667ZM15.5 4V15.6667C15.5 16.5833 14.75 17.3333 13.8333 17.3333H2.16667C1.72464 17.3333 1.30072 17.1577 0.988155 16.8452C0.675595 16.5326 0.5 16.1087 0.5 15.6667L0.508333 4C0.508333 3.08333 1.24167 2.33333 2.16667 2.33333H3V0.666666H4.66667V2.33333H11.3333V0.666666H13V2.33333H13.8333C14.75 2.33333 15.5 3.08333 15.5 4ZM2.16667 5.66667H13.8333V4H2.16667V5.66667ZM13.8333 15.6667V7.33333H2.16667V15.6667H13.8333ZM10.5 9.83333H12.1667V8.16667H10.5V9.83333ZM7.16667 9.83333H8.83333V8.16667H7.16667V9.83333Z" />
</svg>
