<svg viewBox="0 0 16 16" xmlns="http://www.w3.org/2000/svg">
<path d="M8 0C3.58214 0 0 3.58214 0 8C0 12.4179 3.58214 16 8 16C12.4179 16 16 12.4179 16 8C16 3.58214 12.4179 0 8 0ZM8 14.6429C4.33214 14.6429 1.35714 11.6679 1.35714 8C1.35714 4.33214 4.33214 1.35714 8 1.35714C11.6679 1.35714 14.6429 4.33214 14.6429 8C14.6429 11.6679 11.6679 14.6429 8 14.6429Z" />
<path d="M11.1212 10.2608L8.57481 8.41968V4.00003C8.57481 3.92146 8.51053 3.85718 8.43196 3.85718H7.57303C7.49446 3.85718 7.43018 3.92146 7.43018 4.00003V8.91789C7.43018 8.96432 7.4516 9.00718 7.4891 9.03397L10.4427 11.1875C10.507 11.234 10.5962 11.2197 10.6427 11.1572L11.1534 10.4608C11.1998 10.3947 11.1855 10.3054 11.1212 10.2608Z" />
</svg>
