<svg viewBox="0 0 12 12" xmlns="http://www.w3.org/2000/svg">
<path d="M7.098 1.5C8.1705 1.5 9.18225 1.95975 9.94725 2.7945L11.0535 1.7805C10.0005 0.63225 8.59575 0 7.098 0C5.5995 0 4.1955 0.63225 3.144 1.78125C2.6202 2.35395 2.21197 3.02245 1.94175 3.75H0V5.25H1.5855C1.557 5.4975 1.5375 5.74725 1.5375 6C1.5375 6.25275 1.557 6.5025 1.5855 6.75H0V8.25H1.94175C2.21325 8.9775 2.6175 9.64575 3.144 10.2195C4.1955 11.3677 5.5995 12 7.098 12C8.59575 12 10.0005 11.3677 11.0527 10.2195L9.9465 9.2055C9.18225 10.0402 8.1705 10.5 7.098 10.5C6.0255 10.5 5.0145 10.041 4.2495 9.2055C3.99269 8.91651 3.7746 8.59531 3.60075 8.25H6.75V6.75H3.10425C3.06675 6.504 3.0375 6.255 3.0375 6C3.0375 5.745 3.06675 5.496 3.10425 5.25H6.75V3.75H3.60075C3.78075 3.40725 3.98775 3.08025 4.2495 2.7945C5.0145 1.95975 6.0255 1.5 7.098 1.5Z" />
</svg>
