<svg width="19" height="19" viewBox="0 0 19 19" fill="none" xmlns="http://www.w3.org/2000/svg">
<path d="M18 11.8182L17.7424 12.0758L16.3258 13.4924L16.0682 13.75L15.8106 13.4924C15.1674 12.8492 14.1356 12.8493 13.4924 13.4924C12.8492 14.1356 12.8492 15.1674 13.4924 15.8106L13.75 16.0682L13.4924 16.3258L12.0758 17.7424L11.8182 18L11.5606 17.7424L1.25758 7.43939L1.00001 7.18181L1.25758 6.92424L2.67425 5.50757L2.93182 5.25L3.1894 5.50757C3.83258 6.15076 4.86437 6.15078 5.50757 5.50757C6.15076 4.86439 6.15078 3.83258 5.50757 3.18939L5.25 2.93181L5.50757 2.67424L6.92424 1.25757L7.18182 1L7.43939 1.25757L17.7424 11.5606L18 11.8182ZM16.9697 11.8182L10.4015 5.25L5.25 10.4015L11.8182 16.9697L12.7479 16.04C12.0729 15.1152 12.1434 13.8111 12.9773 12.9773C13.8111 12.1435 15.1192 12.0688 16.044 12.7439L16.9697 11.8182ZM9.88637 4.73485L7.18182 2.0303L6.25616 2.95597C6.9312 3.88081 6.85656 5.18889 6.02272 6.02272C5.18891 6.85654 3.88482 6.92707 2.96 6.25212L2.0303 7.18181L4.73485 9.88638L9.88637 4.73485Z" fill="#D19F02" stroke="#D19F02"/>
</svg>
