<?xml version="1.0" encoding="utf-8"?>
<!-- Generator: Adobe Illustrator 24.1.0, SVG Export Plug-In . SVG Version: 6.00 Build 0)  -->
<svg version="1.1" id="Layer_1" xmlns="http://www.w3.org/2000/svg" xmlns:xlink="http://www.w3.org/1999/xlink" x="0px" y="0px"
	 viewBox="0 0 18 4" style="enable-background:new 0 0 18 4;" xml:space="preserve">
<style type="text/css">
	.st0{fill:#FFFFFF;fill-opacity:0.9;}
</style>
<path class="st0" d="M4,2c0,1.1-0.9,2-2,2S0,3.1,0,2s0.9-2,2-2S4,0.9,4,2z M9,0C7.9,0,7,0.9,7,2s0.9,2,2,2s2-0.9,2-2S10.1,0,9,0z M16,0c-1.1,0-2,0.9-2,2s0.9,2,2,2s2-0.9,2-2S17.1,0,16,0z"/>
</svg>
