<?xml version="1.0" encoding="UTF-8"?>
<svg xmlns="http://www.w3.org/2000/svg" xmlns:xlink="http://www.w3.org/1999/xlink" width="128pt" height="128pt" viewBox="0 0 128 128" version="1.1">
<g id="surface1572651">
<path style=" stroke:none;fill-rule:nonzero;fill:rgb(0%,0%,0%);fill-opacity:1;" d="M 24.40625 24.40625 C 14.269531 34.539062 8 48.535156 8 64 C 8 79.464844 14.269531 93.460938 24.40625 103.59375 L 30.078125 97.921875 C 21.386719 89.230469 16 77.230469 16 64 C 16 50.769531 21.386719 38.769531 30.078125 30.078125 Z M 103.59375 24.40625 L 97.921875 30.078125 C 106.613281 38.769531 112 50.769531 112 64 C 112 77.230469 106.613281 89.230469 97.921875 97.921875 L 103.59375 103.59375 C 113.730469 93.460938 120 79.464844 120 64 C 120 48.535156 113.730469 34.539062 103.59375 24.40625 Z M 38.546875 38.546875 C 32.03125 45.0625 28 54.058594 28 64 C 28 73.941406 32.03125 82.9375 38.546875 89.453125 L 44.210938 83.789062 C 39.140625 78.722656 36 71.71875 36 64 C 36 56.28125 39.140625 49.277344 44.210938 44.210938 Z M 89.453125 38.546875 L 83.789062 44.210938 C 88.859375 49.277344 92 56.28125 92 64 C 92 71.71875 88.859375 78.722656 83.789062 83.789062 L 89.453125 89.453125 C 95.96875 82.9375 100 73.941406 100 64 C 100 54.058594 95.96875 45.0625 89.453125 38.546875 Z M 64 48 C 55.164062 48 48 55.164062 48 64 C 48 72.835938 55.164062 80 64 80 C 72.835938 80 80 72.835938 80 64 C 80 55.164062 72.835938 48 64 48 Z M 64 48 "/>
</g>
</svg>
