<svg version="1.1" xmlns="http://www.w3.org/2000/svg" xmlns:xlink="http://www.w3.org/1999/xlink" viewBox="0 0 512 512" xml:space="preserve">
	<path d="M512,264.538c0-7.399-2.869-14.343-8.078-19.552L353.879,94.945c-0.012-0.012-0.022-0.024-0.034-0.036
		c-0.004-0.004-0.009-0.007-0.013-0.012l-24.62-24.62c-5.208-5.209-12.151-8.078-19.55-8.078c-7.398,0-14.342,2.869-19.551,8.077
		L8.077,352.312C2.869,357.521,0,364.463,0,371.862s2.869,14.342,8.077,19.549l64.643,64.643H10.002c-5.523,0-10,4.478-10,10
		c0,5.522,4.477,10,10,10h426.45c5.522,0,10-4.478,10-10c0-5.522-4.478-10-10-10H331.957l171.964-171.965
		C509.131,278.881,512,271.938,512,264.538z M366.538,149.329c1.221-3.603,2.027-7.292,2.44-11.001l113.869,113.868
		l-146.156,8.208L366.538,149.329z M46.918,401.822c-0.318-0.318-0.662-0.602-1.017-0.872l-23.683-23.683
		c-1.431-1.43-2.219-3.35-2.219-5.405c0-2.057,0.788-3.978,2.22-5.408L304.254,84.42c1.431-1.431,3.352-2.22,5.408-2.22
		c2.056,0,3.976,0.788,5.406,2.22l24.663,24.662c8.972,8.995,11.956,22.038,7.788,34.052c-0.079,0.228-0.15,0.458-0.212,0.69
		l-51.342,191.291c-3.069,11.365-12.072,20.242-23.494,23.17c-0.035,0.01-0.07,0.019-0.105,0.027L78.561,410.328
		C67.309,413.33,55.183,410.07,46.918,401.822z M196.843,456.049h-95.842l-24.962-24.962c2.575-0.287,5.145-0.761,7.687-1.439
		l116.765-31.37L196.843,456.049z M303.676,456.05h-86.792l3.993-63.234l56.614-15.171c18.367-4.727,32.841-19.02,37.787-37.333
		l15.964-59.569l96.602-5.426l-18.239,18.238c-3.906,3.904-3.906,10.236-0.001,14.142c1.953,1.953,4.512,2.929,7.071,2.929
		c2.559,0,5.118-0.977,7.07-2.929l34.066-34.063l29.963-1.683L303.676,456.05z"/>
	<path d="M102.395,328.702c-3.906-3.905-10.236-3.905-14.143,0L52.164,364.79c-3.905,3.905-3.905,10.237,0,14.143
		c1.954,1.954,4.513,2.929,7.072,2.929c2.559,0,5.118-0.976,7.071-2.929l36.088-36.088
		C106.3,338.94,106.3,332.608,102.395,328.702z"/>
	<path d="M115.642,325.462c2.56,0,5.118-0.976,7.071-2.929l0.169-0.169c3.905-3.905,3.905-10.237,0-14.143
		c-3.906-3.905-10.236-3.905-14.143,0l-0.169,0.169c-3.905,3.905-3.905,10.237,0,14.143
		C110.523,324.486,113.082,325.462,115.642,325.462z"/>
	<path d="M389.287,313.865l-0.169,0.169c-3.905,3.905-3.905,10.237,0,14.143c1.953,1.952,4.512,2.929,7.072,2.929
		c2.559,0,5.118-0.977,7.071-2.929l0.169-0.169c3.905-3.905,3.905-10.237,0-14.143C399.524,309.96,393.194,309.96,389.287,313.865
		z"/>
	<path d="M366.232,74.869c2.559,0,5.118-0.976,7.071-2.929l18.923-18.923c3.905-3.905,3.905-10.237,0-14.143
		c-3.906-3.905-10.236-3.905-14.143,0L359.16,57.798c-3.905,3.905-3.905,10.237,0,14.143
		C361.113,73.893,363.672,74.869,366.232,74.869z"/>
	<path d="M422.797,131.439c2.56,0,5.118-0.976,7.071-2.929l37.848-37.848c3.905-3.905,3.905-10.237,0-14.143
		c-3.906-3.905-10.236-3.905-14.142,0l-37.848,37.848c-3.905,3.905-3.905,10.237,0,14.143
		C417.679,130.463,420.237,131.439,422.797,131.439z"/>
	<path d="M472.293,185.075c1.952,1.953,4.512,2.929,7.071,2.929s5.118-0.976,7.07-2.929l18.925-18.923
		c3.906-3.905,3.906-10.236,0.001-14.142c-3.903-3.904-10.236-3.906-14.142,0l-18.925,18.923
		C468.388,174.838,468.388,181.169,472.293,185.075z"/>
</svg>
