<svg id="Calque_1" data-name="Calque 1" xmlns="http://www.w3.org/2000/svg" viewBox="0 0 464 445.24"><path d="M364.39,44.17h-4.28V16.93a8.89,8.89,0,0,0-8.88-8.88h-73.1a8.88,8.88,0,0,0-8.88,8.88V44.17H142.67V16.93a8.88,8.88,0,0,0-8.88-8.88H60.69a8.88,8.88,0,0,0-8.87,8.88V44.17H47.53A47.58,47.58,0,0,0,0,91.7V358.2a47.58,47.58,0,0,0,47.53,47.52H364.39a47.58,47.58,0,0,0,47.53-47.52V91.7A47.58,47.58,0,0,0,364.39,44.17ZM287,25.81h55.36V74.69H287Zm-217.43,0h55.35V74.69H69.57Zm-22,36.12h4.29V83.57a8.88,8.88,0,0,0,8.87,8.88H133.8a8.89,8.89,0,0,0,8.88-8.88V61.93H269.25V83.57a8.88,8.88,0,0,0,8.88,8.88h73.1a8.88,8.88,0,0,0,8.88-8.88V61.93h4.29A29.8,29.8,0,0,1,394.17,91.7v45.84H17.75V91.7A29.8,29.8,0,0,1,47.53,61.93ZM364.39,388H47.53A29.81,29.81,0,0,1,17.75,358.2V155.29H394.17V358.2A29.81,29.81,0,0,1,364.39,388Z" transform="translate(0 -8.05)"/><path d="M239.11,269.14H212.72V227.5a8.88,8.88,0,1,0-17.75,0V278a8.87,8.87,0,0,0,8.88,8.87h35.26a8.88,8.88,0,0,0,0-17.75Z" transform="translate(0 -8.05)"/><path d="M206,178.71a90.6,90.6,0,1,0,90.6,90.6A90.6,90.6,0,0,0,206,178.71Zm0,163.45a72.85,72.85,0,1,1,72.85-72.85A72.86,72.86,0,0,1,206,342.16Z" transform="translate(0 -8.05)"/><path d="M412.18,91.75V109.5s34.06-2.17,34.06,29.77,0,266.5,0,266.5-1.53,29.77-29.77,29.77H99.6s-29.77-3.18-29.77-29.77H52.08s1.41,47.52,47.52,47.52H416.47S464,452.22,464,405.77V139.27S464.89,92.19,412.18,91.75Z" transform="translate(0 -8.05)"/></svg>