<?xml version="1.0" encoding="UTF-8" standalone="no"?>
<!DOCTYPE svg PUBLIC "-//W3C//DTD SVG 1.1//EN" "http://www.w3.org/Graphics/SVG/1.1/DTD/svg11.dtd">
<svg width="100%" height="100%" viewBox="0 0 24 24" version="1.1" xmlns="http://www.w3.org/2000/svg" xmlns:xlink="http://www.w3.org/1999/xlink" xml:space="preserve" xmlns:serif="http://www.serif.com/" style="fill-rule:evenodd;clip-rule:evenodd;stroke-linejoin:round;stroke-miterlimit:2;">
    <g>
        <path d="M22.278,21.278C22.278,21.83 21.83,22.278 21.278,22.278L18.228,22.278L18.228,24L22.128,24C22.624,23.998 23.1,23.802 23.454,23.454C23.628,23.28 23.766,23.073 23.86,22.846C23.953,22.618 24.001,22.374 24,22.128L24,18.228L22.278,18.228L22.278,21.278Z" style="fill-rule:nonzero;"/>
        <path d="M23.454,0.546C23.1,0.198 22.624,0.002 22.128,0L18.228,0L18.228,1.722L21.278,1.722C21.83,1.722 22.278,2.17 22.278,2.722L22.278,5.772L24,5.772L24,1.872C24.001,1.626 23.953,1.382 23.86,1.154C23.766,0.927 23.628,0.72 23.454,0.546Z" style="fill-rule:nonzero;"/>
        <path d="M0.546,0.546C0.372,0.72 0.234,0.927 0.141,1.154C0.047,1.382 -0.001,1.626 0,1.872L0,5.772L1.722,5.772L1.722,2.722C1.722,2.17 2.17,1.722 2.722,1.722L5.772,1.722L5.772,0L1.872,0C1.376,0.002 0.9,0.198 0.546,0.546Z" style="fill-rule:nonzero;"/>
        <path d="M1.722,18.228L0,18.228L0,22.128C-0.001,22.625 0.196,23.102 0.546,23.454C0.9,23.802 1.376,23.998 1.872,24L5.772,24L5.772,22.278L2.722,22.278C2.17,22.278 1.722,21.83 1.722,21.278L1.722,18.228Z" style="fill-rule:nonzero;"/>
        <path d="M12.864,8.994L11.19,8.994L11.19,11.172L9,11.172L9,12.81L11.19,12.81L11.19,14.994L12.864,14.994L12.864,12.81L15,12.81L15,11.172L12.864,11.172L12.864,8.994Z" style="fill-rule:nonzero;"/>
    </g>
</svg>
