<svg viewBox="0 0 22 22" xmlns="http://www.w3.org/2000/svg">
<path d="M22 20.6001L16.7 15.3001C18 13.7001 18.8 11.6001 18.8 9.40006C18.8 4.20006 14.6 6.10352e-05 9.4 6.10352e-05C4.2 6.10352e-05 0 4.20006 0 9.40006C0 14.6001 4.2 18.8001 9.4 18.8001C11.7 18.8001 13.7 18.0001 15.3 16.7001L20.6 22.0001L22 20.6001ZM1.9 9.40006C1.9 5.30006 5.3 1.90006 9.4 1.90006C13.5 1.90006 16.9 5.30006 16.9 9.40006C16.9 11.4001 16.1 13.2001 14.8 14.6001L14.5 14.9001C13.2 16.2001 11.3 17.0001 9.3 17.0001C5.3 16.9001 1.9 13.6001 1.9 9.40006Z" />
</svg>
