<?xml version="1.0" encoding="UTF-8" standalone="no"?>
<!DOCTYPE svg PUBLIC "-//W3C//DTD SVG 1.1//EN" "http://www.w3.org/Graphics/SVG/1.1/DTD/svg11.dtd">
<svg width="100%" height="100%" viewBox="0 0 24 24" version="1.1" xmlns="http://www.w3.org/2000/svg" xmlns:xlink="http://www.w3.org/1999/xlink" xml:space="preserve" xmlns:serif="http://www.serif.com/" style="fill-rule:evenodd;clip-rule:evenodd;stroke-linejoin:round;stroke-miterlimit:2;">
    <g transform="matrix(0.0469667,0,0,0.0469667,-0.000294461,-0.0149055)">
        <path d="M509.664,195.998C506.299,185.651 497.121,178.326 486.306,177.347L338.796,163.955L280.499,27.47C276.195,17.442 266.401,10.971 255.5,10.971C244.6,10.971 234.802,17.442 230.525,27.47L172.228,163.955L24.694,177.347C13.879,178.345 4.721,185.671 1.337,195.998C-2.027,206.345 1.08,217.694 9.259,224.868L120.766,322.643L87.888,467.448C85.483,478.095 89.615,489.105 98.45,495.491C103.198,498.942 108.777,500.665 114.376,500.665C119.187,500.665 124.002,499.386 128.302,496.813L255.5,420.757L382.676,496.813C392.005,502.388 403.736,501.877 412.551,495.491C421.386,489.105 425.518,478.095 423.113,467.448L390.235,322.643L501.741,224.868C509.917,217.694 513.028,206.369 509.664,195.998Z" style="fill-rule:nonzero;"/>
    </g>
</svg>
