<?xml version="1.0" encoding="UTF-8" standalone="no"?>
<!DOCTYPE svg PUBLIC "-//W3C//DTD SVG 1.1//EN" "http://www.w3.org/Graphics/SVG/1.1/DTD/svg11.dtd">
<svg width="100%" height="100%" viewBox="0 0 24 19" version="1.1" xmlns="http://www.w3.org/2000/svg" xmlns:xlink="http://www.w3.org/1999/xlink" xml:space="preserve" xmlns:serif="http://www.serif.com/" style="fill-rule:evenodd;clip-rule:evenodd;stroke-linejoin:round;stroke-miterlimit:2;">
    <g transform="matrix(1.04229,0,0,1.04229,-1.02866,0)">
        <path d="M16,0C16.552,0 17,0.448 17,1L17,17C17,17.552 16.552,18 16,18C15.448,18 15,17.552 15,17L15,1C15,0.448 15.448,0 16,0ZM10,7C10,6.448 9.552,6 9,6C8.448,6 8,6.448 8,7L8,17C8,17.552 8.448,18 9,18C9.552,18 10,17.552 10,17L10,7ZM24,7C24,6.448 23.552,6 23,6C22.448,6 22,6.448 22,7L22,17C22,17.552 22.448,18 23,18C23.552,18 24,17.552 24,17L24,7ZM3,11C3,10.448 2.552,10 2,10C1.448,10 1,10.448 1,11L1,17C1,17.552 1.448,18 2,18C2.552,18 3,17.552 3,17L3,11Z"/>
    </g>
</svg>
