<svg viewBox="0 0 17 16" xmlns="http://www.w3.org/2000/svg">
<path d="M16 10.1818L15.7576 10.4243L14.4242 11.7576L14.1818 12L13.9394 11.7576C13.334 11.1522 12.3629 11.1522 11.7576 11.7576C11.1522 12.363 11.1522 13.334 11.7576 13.9394L12 14.1818L11.7576 14.4242L10.4242 15.7576L10.1818 16L9.93938 15.7576L0.242421 6.06061L0 5.81818L0.242421 5.57576L1.57576 4.24242L1.81818 4L2.0606 4.24242C2.66596 4.84778 3.63705 4.84779 4.24242 4.24242C4.84777 3.63708 4.84779 2.66596 4.24242 2.06061L3.99999 1.81818L4.24242 1.57576L5.57576 0.242419L5.81818 0L6.0606 0.242419L15.7576 9.9394L16 10.1818ZM15.0303 10.1818L8.84848 4L3.99999 8.8485L10.1818 15.0303L11.0568 14.1553C10.4216 13.2849 10.4879 12.0575 11.2727 11.2727C12.0575 10.488 13.2887 10.4177 14.1591 11.053L15.0303 10.1818ZM8.36364 3.51515L5.81818 0.969698L4.94697 1.84091C5.5823 2.71135 5.51205 3.94248 4.72726 4.72727C3.9425 5.51204 2.71512 5.57842 1.8447 4.94318L0.969687 5.81818L3.51515 8.36365L8.36364 3.51515Z" stroke-width="0.5"/>
</svg>
