<svg viewBox="0 0 1144 173" version="1.1" xmlns="http://www.w3.org/2000/svg" xmlns:xlink="http://www.w3.org/1999/xlink" xml:space="preserve" xmlns:serif="http://www.serif.com/">
    <g transform="matrix(1,0,0,1,-616,-614)">
        <path d="M924.701,614C933.804,614 942.424,615.314 950.553,617.946C958.709,620.587 966.027,624.441 972.493,629.505C978.993,634.595 984.356,640.898 988.572,648.393C992.799,655.908 995.452,664.491 996.539,674.119L997,680L957,680L956.609,674.895C956.073,671.274 954.873,667.976 953.006,664.974C951.097,661.906 948.712,659.214 945.841,656.89C942.976,654.571 939.732,652.761 936.097,651.458C932.474,650.159 928.681,649.51 924.701,649.51C917.285,649.51 911.076,650.924 906.035,653.717C900.937,656.542 896.824,660.312 893.663,665.053C890.437,669.893 888.08,675.415 886.596,681.635C885.086,687.962 884.331,694.51 884.331,701.282C884.331,707.748 885.084,714.027 886.59,720.125C888.072,726.121 890.426,731.496 893.652,736.266C896.813,740.939 900.93,744.678 906.035,747.506C911.076,750.299 917.285,751.714 924.701,751.714C934.633,751.714 942.209,748.751 947.645,742.845C952.966,737.064 956.339,729.48 957.744,720.017C958,720 996,720 997.809,720.05C996.832,730.038 994.462,739.111 990.692,747.255C986.804,755.653 981.656,762.829 975.253,768.763C968.846,774.701 961.346,779.232 952.778,782.348C944.241,785.452 934.878,787 924.701,787C912.082,787 900.683,784.798 890.529,780.379C880.379,775.963 871.791,769.862 864.793,762.086C857.819,754.337 852.477,745.24 848.77,734.816C845.076,724.425 843.232,713.243 843.232,701.282C843.232,689.029 845.074,677.628 848.766,667.092C852.469,656.523 857.806,647.28 864.773,639.383C871.77,631.453 880.359,625.235 890.512,620.74C900.671,616.242 912.075,614 924.701,614ZM1513.94,616L1474,656L1440,656L1440,784L1400,784L1400,656L1352,655.969L1352.05,616L1513.94,616ZM1328,616L1328,656L1240,656L1240,680L1314,680L1314,720L1240,720L1240,744L1328,744L1328,784L1200,784L1200,616L1328,616ZM1064,616L1064,680L1128,616L1176,616L1109,683L1176,784L1128,784L1080,712L1064,728L1064,784L1024,784L1024,616L1064,616ZM816,616L816,784L776,784L776,616L816,616ZM752,616L752,656L704,656L704,784L664,784L664,656L616,655.969L616.052,616L752,616ZM1696,616L1696,720L1632,720L1632,744L1720,744L1720,616L1760,616L1760,784L1592,784L1592,680L1656,680L1656,656L1568,656L1504,720L1504,784L1464,784L1464,700L1548,616L1696,616Z" />
    </g>
</svg>
