<svg viewBox="0 0 66 56" xmlns="http://www.w3.org/2000/svg">
<path d="M58.7169 43.3803C58.3664 43.7308 57.8406 43.7308 57.49 43.3803L54.6856 40.5759V49.3396C54.6856 49.7778 54.3351 50.216 53.8092 50.216C53.2834 50.216 52.9329 49.7778 52.9329 49.3396V40.5759L50.1285 43.3803C49.9532 43.5556 49.6903 43.6432 49.515 43.6432C49.2521 43.6432 49.0769 43.5556 48.9016 43.3803C48.551 43.0297 48.551 42.5039 48.9016 42.1534L53.1958 37.8592C53.2834 37.7715 53.3711 37.6839 53.4587 37.6839C53.634 37.5963 53.8969 37.5963 54.1598 37.6839C54.2474 37.6839 54.3351 37.7715 54.4227 37.8592L58.7169 42.1534C59.0675 42.5039 59.0675 43.0297 58.7169 43.3803Z" />
<path d="M15.5992 17.5274C12.5319 17.5274 9.99048 15.0735 9.99048 11.9186C9.99048 8.85129 12.4443 6.39746 15.5992 6.39746C18.6665 6.39746 21.1204 8.85129 21.1204 11.9186C21.1204 15.0735 18.6665 17.5274 15.5992 17.5274ZM15.5992 8.1502C13.496 8.1502 11.7432 9.90294 11.7432 11.9186C11.7432 13.9342 13.496 15.7746 15.5992 15.7746C17.7025 15.7746 19.3676 14.0219 19.3676 11.9186C19.3676 9.8153 17.7025 8.1502 15.5992 8.1502Z" />
<path d="M54.6854 31.8998V2.62911C54.6854 1.22692 53.5462 0 52.0563 0H2.62911C1.13928 0 0 1.22692 0 2.62911V42.1534C0 43.5556 1.13928 44.7825 2.62911 44.7825H41.8028C42.241 51.0047 47.4992 56 53.8091 56C60.4695 56 65.903 50.5665 65.903 43.9061C65.8153 37.5962 60.9077 32.338 54.6854 31.8998ZM1.75274 2.62911C1.75274 2.19092 2.10329 1.75274 2.62911 1.75274H52.0563C52.5822 1.75274 52.9327 2.19092 52.9327 2.62911V28.3067L40.1377 17.0892C39.7872 16.8263 39.2613 16.8263 38.9984 17.0892L23.5743 31.4617L16.4757 24.4507C16.2128 24.1878 15.687 24.1002 15.3365 24.3631L1.75274 34.266V2.62911ZM2.62911 43.0297C2.10329 43.0297 1.75274 42.5916 1.75274 42.1534V36.3693L15.7746 26.2034L22.9609 33.302C23.3114 33.6526 23.8372 33.6526 24.1878 33.302L39.6119 18.9296L52.9327 30.5853V31.8998C46.9734 32.338 42.241 37.0704 41.8028 43.0297H2.62911ZM53.8091 54.2473C48.1127 54.2473 43.5556 49.6025 43.5556 43.9061C43.5556 38.2097 48.2003 33.5649 53.8091 33.5649C59.5055 33.5649 64.1502 38.2097 64.1502 43.9061C64.0626 49.6025 59.5055 54.2473 53.8091 54.2473Z"/>
</svg>
