<svg id="Calque_1" data-name="Calque 1" xmlns="http://www.w3.org/2000/svg" xmlns:xlink="http://www.w3.org/1999/xlink" viewBox="0 0 511.99 512"><defs><style>.cls-1{fill:#fff;}.cls-2{fill:url(#Dégradé_sans_nom_12);}.cls-3{isolation:isolate;font-size:277.37px;fill:#ff6d00;font-family:ShreeDev0714-Bold, "Shree Devanagari 714";font-weight:700;}.cls-4{fill:url(#Dégradé_sans_nom_15);}.cls-5{fill:url(#Dégradé_sans_nom_9);}</style><linearGradient id="Dégradé_sans_nom_12" x1="581.27" y1="476.83" x2="153.94" y2="170.41" gradientUnits="userSpaceOnUse"><stop offset="0" stop-color="#ff6d00" stop-opacity="0"/><stop offset="0.33" stop-color="#fff" stop-opacity="0.1"/><stop offset="0.7" stop-color="#ff6d00" stop-opacity="0.3"/><stop offset="1" stop-color="#ff6d00" stop-opacity="0.45"/></linearGradient><linearGradient id="Dégradé_sans_nom_15" x1="255.97" y1="74.51" x2="255.97" y2="7.42" gradientTransform="matrix(1, 0, 0, -1, 0, 511.89)" gradientUnits="userSpaceOnUse"><stop offset="0" stop-color="#fff5f0" stop-opacity="0"/><stop offset="1" stop-color="#ffd9c0"/></linearGradient><linearGradient id="Dégradé_sans_nom_9" x1="256" y1="74.51" x2="256" y2="7.42" gradientTransform="matrix(1, 0, 0, -1, 0, 511.89)" gradientUnits="userSpaceOnUse"><stop offset="0" stop-color="#ededed" stop-opacity="0"/><stop offset="1" stop-color="#c6c6c6"/></linearGradient></defs><path class="cls-1" d="M503.18,91.58a93.12,93.12,0,0,0-82.8-82.8,1544.41,1544.41,0,0,0-328.8,0,93,93,0,0,0-82.8,82.8,1544.41,1544.41,0,0,0,0,328.8,93.1,93.1,0,0,0,82.8,82.79,1543.1,1543.1,0,0,0,328.8,0,93.12,93.12,0,0,0,82.8-82.79A1537.87,1537.87,0,0,0,503.18,91.58Z" transform="translate(-0.01 0)"/><polygon class="cls-2" points="140.1 312.6 174.5 356 380.79 506.89 405.19 504.88 424.35 502.75 432.09 501.17 438.79 499.31 444.73 497.2 449.93 494.96 453.85 493.03 457.99 490.71 461.32 488.65 465.23 486.05 468.26 483.66 471.15 481.28 474.26 478.5 477.5 475.31 480.74 471.78 483.85 468.03 487.06 463.47 490.38 458.33 493.26 452.66 495.6 447.93 497.4 443.72 499.28 438.54 500.86 433.13 501.95 428.37 502.79 423.46 503.48 417.03 504.15 409.8 504.69 403.97 505.27 397.67 506.05 389.24 506.78 381.18 507.59 372.18 508.6 360.4 509.66 346.61 510.69 329.71 511.42 310.23 511.78 283.26 511.94 253.3 355.56 146 267.49 118.51 190.96 139.94 156.22 176.94 132.2 221.09 131.22 269.79 140.1 312.6"/><text class="cls-3" transform="translate(113.99 331.31)">@</text><path class="cls-4" d="M7.64,409.8c.36,3.54.72,7.08,1.1,10.62a93.22,93.22,0,0,0,82.82,82.81,1546,1546,0,0,0,328.83,0,93.22,93.22,0,0,0,82.82-82.81c.38-3.54.74-7.08,1.1-10.62Z" transform="translate(-0.01 0)"/><path class="cls-5" d="M7.67,409.8q.53,5.31,1.09,10.62a93.22,93.22,0,0,0,82.82,82.81,1546.1,1546.1,0,0,0,328.84,0,93.21,93.21,0,0,0,82.81-82.81c.38-3.54.74-7.08,1.1-10.62Z" transform="translate(-0.01 0)"/></svg>