<svg id="Layer_1" data-name="Layer 1" xmlns="http://www.w3.org/2000/svg" xmlns:xlink="http://www.w3.org/1999/xlink" viewBox="0 0 425.63 425.63"><defs><style>.cls-1{fill:url(#Dégradé_sans_nom_15);}.cls-2{fill:url(#Dégradé_sans_nom_25);}.cls-3{fill:url(#Dégradé_sans_nom_28);}.cls-4{fill:url(#Dégradé_sans_nom_26);}.cls-5{fill:#fff;}</style><linearGradient id="Dégradé_sans_nom_15" x1="142.33" y1="367.15" x2="249.98" y2="136.82" gradientTransform="matrix(1, 0, 0, -1, 0, 427.89)" gradientUnits="userSpaceOnUse"><stop offset="0" stop-color="#00ce53"/><stop offset="1" stop-color="#00d95f"/></linearGradient><linearGradient id="Dégradé_sans_nom_25" x1="303.84" y1="165.89" x2="-314.54" y2="497.61" gradientTransform="matrix(1, 0, 0, -1, 0, 427.89)" gradientUnits="userSpaceOnUse"><stop offset="0" stop-color="#00ce53" stop-opacity="0"/><stop offset="1" stop-color="#0bb550"/></linearGradient><linearGradient id="Dégradé_sans_nom_28" x1="213.83" y1="63.77" x2="213.83" y2="7.66" xlink:href="#Dégradé_sans_nom_25"/><linearGradient id="Dégradé_sans_nom_26" x1="430.54" y1="56.1" x2="208.71" y2="220.75" xlink:href="#Dégradé_sans_nom_25"/></defs><path class="cls-1" d="M350.51,419.24a1285,1285,0,0,1-273.37,0A77.48,77.48,0,0,1,8.3,350.4,1285,1285,0,0,1,8.3,77,77.48,77.48,0,0,1,77.14,8.19a1285,1285,0,0,1,273.37,0A77.48,77.48,0,0,1,419.35,77a1285,1285,0,0,1,0,273.37A77.48,77.48,0,0,1,350.51,419.24Z" transform="translate(-1.01 -0.9)"/><path class="cls-2" d="M396.2,92.43a68.75,68.75,0,0,0-61.09-61.09,1140.9,1140.9,0,0,0-242.57,0A68.77,68.77,0,0,0,31.45,92.43a1140.9,1140.9,0,0,0,0,242.57,68.77,68.77,0,0,0,61.09,61.09,1140.9,1140.9,0,0,0,242.57,0A68.76,68.76,0,0,0,396.2,335,1140.9,1140.9,0,0,0,396.2,92.43Z" transform="translate(-1.01 -0.9)"/><path class="cls-3" d="M6.14,341.06q.43,4.44.91,8.88A78,78,0,0,0,76.31,419.2a1294,1294,0,0,0,275,0,78,78,0,0,0,69.26-69.26c.32-3,.62-5.92.92-8.88Z" transform="translate(-1.01 -0.9)"/><path class="cls-4" d="M179.42,133.12S66,157.22,87.55,172l40,27.5-23,29.21s22,14.9,35,25.2l-21.3,3.88c-13,7.71-4.09,22.37-4.09,22.37L314.39,422.61s-7.87.59,37.53-3.46c34.24-4.42,63.58-32,67.43-68.75,5.36-51.11,6.52-73.47,7.29-124.65l-88.5-60.47" transform="translate(-1.01 -0.9)"/><path class="cls-5" d="M328.87,199.49a18.29,18.29,0,0,1-9.25-2.51c-93.49-54.64-214.76-22.16-216-21.82a18.35,18.35,0,1,1-9.75-35.39c1.4-.39,34.84-9.47,81.35-11a358.42,358.42,0,0,1,78.38,5.68c31.17,5.91,59.61,16.29,84.51,30.84a18.36,18.36,0,0,1-9.27,34.21Z" transform="translate(-1.01 -0.9)"/><path class="cls-5" d="M314.43,243.84A14.95,14.95,0,0,1,294,249.21c-39.33-23-84.76-26.67-115.95-25.72-34.55,1-59.89,7.87-60.14,7.94a15,15,0,0,1-7.94-28.86c1.14-.31,28.41-7.72,66.33-9a292.29,292.29,0,0,1,63.9,4.62c25.41,4.83,48.59,13.29,68.9,25.15A15,15,0,0,1,314.43,243.84Z" transform="translate(-1.01 -0.9)"/><path class="cls-5" d="M290.94,292.62a12.64,12.64,0,0,1-17.28,4.54c-33.2-19.41-71.55-22.52-97.88-21.72-29.18.88-50.57,6.64-50.78,6.7a12.63,12.63,0,0,1-6.7-24.36c1-.27,24-6.52,56-7.58a246.89,246.89,0,0,1,53.94,3.91c21.46,4.07,41,11.21,58.17,21.23A12.64,12.64,0,0,1,290.94,292.62Z" transform="translate(-1.01 -0.9)"/></svg>