<svg id="Capa_1" data-name="Capa 1" xmlns="http://www.w3.org/2000/svg" xmlns:xlink="http://www.w3.org/1999/xlink" viewBox="0 0 514.24 511.95"><defs><style>.cls-1{fill:#018cf7;}.cls-2{fill:url(#Dégradé_sans_nom_11);}.cls-3{fill:url(#Dégradé_sans_nom_12);}.cls-4{fill:#01bcff;}</style><linearGradient id="Dégradé_sans_nom_11" x1="256" y1="757.4" x2="256" y2="826.68" gradientTransform="translate(0 -330)" gradientUnits="userSpaceOnUse"><stop offset="0" stop-color="#018cf7"/><stop offset="1" stop-color="#016fec"/></linearGradient><linearGradient id="Dégradé_sans_nom_12" x1="603.43" y1="774.67" x2="127.06" y2="534.47" gradientTransform="translate(0 -330)" gradientUnits="userSpaceOnUse"><stop offset="0" stop-color="#3457a0" stop-opacity="0"/><stop offset="0.33" stop-color="#2a4c8d" stop-opacity="0.1"/><stop offset="0.7" stop-color="#22427d" stop-opacity="0.3"/><stop offset="1" stop-color="#1f3f77" stop-opacity="0.45"/></linearGradient></defs><path class="cls-1" d="M503.2,91.5A93.12,93.12,0,0,0,420.4,8.7a1544.41,1544.41,0,0,0-328.8,0A93,93,0,0,0,8.8,91.5a1544.41,1544.41,0,0,0,0,328.8,93.12,93.12,0,0,0,82.8,82.8,1544.41,1544.41,0,0,0,328.8,0,93.12,93.12,0,0,0,82.8-82.8A1544.41,1544.41,0,0,0,503.2,91.5Z" transform="translate(-0.02 0.08)"/><path class="cls-2" d="M7.7,409.3c.4,3.5.7,7.1,1.1,10.6a93.12,93.12,0,0,0,82.8,82.8,1544.41,1544.41,0,0,0,328.8,0,93.12,93.12,0,0,0,82.8-82.8c.4-3.5.7-7.1,1.1-10.6Z" transform="translate(-0.02 0.08)"/><path class="cls-3" d="M170.84,109.49l-71,93-4.6,98.42,34,79.38,20.59,27.45L309.45,510.54c52.4-.3,58.82-2.26,111.12-7.76a93.13,93.13,0,0,0,82.8-82.8c8.7-81.5,13.56-132.84,9.36-214.44L349.37,102.46l-7.51-3.66" transform="translate(-0.02 0.08)"/><path class="cls-4" d="M388,132.5a182.43,182.43,0,0,0-258,258,182.43,182.43,0,0,0,258-258Zm-209.8,129a285.53,285.53,0,0,1,5.2-55.1,335.5,335.5,0,0,1,64-7.8V324.4a335.5,335.5,0,0,1-64-7.8,287.06,287.06,0,0,1-5.2-55.1Zm-19.6,48.2c-36.8-12.4-58.8-30.9-58.8-48.2s22-35.8,58.8-48.2a324.47,324.47,0,0,0,0,96.4ZM328.5,181.4a379.09,379.09,0,0,0-57.9-6.1V104c24.3,7.2,45.6,36.8,57.9,77.4ZM247.4,104v71.4a366.9,366.9,0,0,0-57.9,6.1c12.3-40.7,33.6-70.3,57.9-77.5Zm0,243.5V419c-24.4-7.2-45.6-36.8-57.9-77.5A368.34,368.34,0,0,0,247.4,347.5ZM270.6,419V347.6a366.9,366.9,0,0,0,57.9-6.1C316.2,382.1,294.9,411.7,270.6,419Zm0-94.6V198.6a335.5,335.5,0,0,1,64,7.8,287.06,287.06,0,0,1,5.2,55.1,285.53,285.53,0,0,1-5.2,55.1A335.5,335.5,0,0,1,270.6,324.4Zm88.8-111.2c36.8,12.4,58.8,30.9,58.8,48.2s-22,35.8-58.8,48.2a316,316,0,0,0,3.6-48.2,316.93,316.93,0,0,0-3.6-48.2Zm51.1-.8a144.89,144.89,0,0,0-26.1-14.3,222.65,222.65,0,0,0-30.2-10.6,225.43,225.43,0,0,0-19.7-52.2,161.35,161.35,0,0,0-12.8-20.1A159.48,159.48,0,0,1,410.5,212.4ZM196.3,115.1a141.16,141.16,0,0,0-12.8,20.1,222.66,222.66,0,0,0-19.7,52.2A237.19,237.19,0,0,0,133.6,198a152.08,152.08,0,0,0-26.1,14.3,160,160,0,0,1,88.8-97.2ZM107.5,310.5a144.89,144.89,0,0,0,26.1,14.3,222.65,222.65,0,0,0,30.2,10.6,225.43,225.43,0,0,0,19.7,52.2,161.35,161.35,0,0,0,12.8,20.1A159.48,159.48,0,0,1,107.5,310.5Zm214.2,97.3a141.16,141.16,0,0,0,12.8-20.1,222.66,222.66,0,0,0,19.7-52.2,237.19,237.19,0,0,0,30.2-10.6,152.08,152.08,0,0,0,26.1-14.3A160,160,0,0,1,321.7,407.8Z" transform="translate(-0.02 0.08)"/></svg>