<?xml version="1.0" encoding="UTF-8" standalone="no"?>
<!DOCTYPE svg PUBLIC "-//W3C//DTD SVG 1.1//EN" "http://www.w3.org/Graphics/SVG/1.1/DTD/svg11.dtd">
<svg width="100%" height="100%" viewBox="0 0 515 512" version="1.1" xmlns="http://www.w3.org/2000/svg" xmlns:xlink="http://www.w3.org/1999/xlink" xml:space="preserve" xmlns:serif="http://www.serif.com/" style="fill-rule:evenodd;clip-rule:evenodd;stroke-linejoin:round;stroke-miterlimit:2;">
    <g transform="matrix(1,0,0,1,-0.02,0.08)">
        <path d="M503.2,91.5C498.594,47.988 463.912,13.306 420.4,8.7C311.112,-3 200.888,-3 91.6,8.7C48.069,13.262 13.362,47.969 8.8,91.5C-2.9,200.788 -2.9,311.012 8.8,420.3C13.406,463.812 48.088,498.494 91.6,503.1C200.888,514.8 311.112,514.8 420.4,503.1C463.912,498.494 498.594,463.812 503.2,420.3C514.9,311.012 514.9,200.788 503.2,91.5Z" style="fill:rgb(60,52,83);fill-rule:nonzero;"/>
    </g>
    <g transform="matrix(0.585938,0,0,0.585938,106,106)">
        <g>
            <path d="M376,30C348.217,30 322.745,38.804 300.293,56.168C278.768,72.815 264.437,94.018 256,109.436C247.563,94.017 233.232,72.815 211.707,56.168C189.255,38.804 163.783,30 136,30C58.468,30 0,93.417 0,177.514C0,268.368 72.943,330.529 183.369,424.632C202.121,440.613 223.376,458.727 245.468,478.046C248.38,480.596 252.12,482 256,482C259.88,482 263.62,480.596 266.532,478.047C288.626,458.725 309.88,440.612 328.643,424.622C439.057,330.529 512,268.368 512,177.514C512,93.417 453.532,30 376,30Z" style="fill:white;fill-rule:nonzero;"/>
        </g>
    </g>
</svg>
