<?xml version="1.0" encoding="UTF-8" standalone="no"?>
<!DOCTYPE svg PUBLIC "-//W3C//DTD SVG 1.1//EN" "http://www.w3.org/Graphics/SVG/1.1/DTD/svg11.dtd">
<svg width="100%" height="100%" viewBox="0 0 515 512" version="1.1" xmlns="http://www.w3.org/2000/svg" xmlns:xlink="http://www.w3.org/1999/xlink" xml:space="preserve" xmlns:serif="http://www.serif.com/" style="fill-rule:evenodd;clip-rule:evenodd;stroke-linejoin:round;stroke-miterlimit:2;">
    <g transform="matrix(1,0,0,1,-0.02,0.08)">
        <path d="M503.2,91.5C498.594,47.988 463.912,13.306 420.4,8.7C311.112,-3 200.888,-3 91.6,8.7C48.069,13.262 13.362,47.969 8.8,91.5C-2.9,200.788 -2.9,311.012 8.8,420.3C13.406,463.812 48.088,498.494 91.6,503.1C200.888,514.8 311.112,514.8 420.4,503.1C463.912,498.494 498.594,463.812 503.2,420.3C514.9,311.012 514.9,200.788 503.2,91.5Z" style="fill:rgb(60,52,83);fill-rule:nonzero;"/>
    </g>
    <g transform="matrix(0.585938,0,0,0.585938,106,106)">
        <g>
            <path d="M474.644,74.27C449.391,45.616 414.358,29.836 376,29.836C322.052,29.836 287.897,62.056 268.745,89.086C263.776,96.1 259.549,103.133 256,109.751C252.451,103.133 248.225,96.1 243.255,89.086C224.103,62.056 189.948,29.836 136,29.836C97.642,29.836 62.609,45.617 37.355,74.271C13.267,101.605 0,138.213 0,177.351C0,219.954 16.633,259.579 52.345,302.051C84.262,340.011 130.179,379.139 183.35,424.448C203.163,441.332 223.652,458.792 245.465,477.877L246.12,478.451C248.948,480.927 252.474,482.164 256,482.164C259.526,482.164 263.052,480.926 265.88,478.451L266.535,477.877C288.348,458.792 308.837,441.333 328.653,424.446C381.821,379.14 427.738,340.012 459.655,302.051C495.367,259.578 512,219.954 512,177.351C512,138.213 498.733,101.605 474.644,74.27ZM309.193,401.614C292.113,416.168 274.535,431.147 256,447.26C237.466,431.149 219.887,416.169 202.804,401.612C98.745,312.939 30,254.358 30,177.351C30,145.521 40.605,115.957 59.862,94.106C79.34,72.007 106.379,59.836 136,59.836C177.129,59.836 203.716,85.174 218.776,106.43C232.285,125.494 239.334,144.712 241.738,152.089C243.749,158.264 249.506,162.443 256,162.443C262.494,162.443 268.251,158.264 270.262,152.089C272.666,144.712 279.715,125.494 293.224,106.429C308.284,85.174 334.871,59.836 376,59.836C405.621,59.836 432.66,72.007 452.137,94.106C471.395,115.957 482,145.521 482,177.351C482,254.358 413.255,312.939 309.193,401.614Z" style="fill:white;fill-rule:nonzero;"/>
        </g>
    </g>
</svg>
