<?xml version="1.0" encoding="UTF-8" standalone="no"?>
<!DOCTYPE svg PUBLIC "-//W3C//DTD SVG 1.1//EN" "http://www.w3.org/Graphics/SVG/1.1/DTD/svg11.dtd">
<svg width="100%" height="100%" viewBox="0 0 515 512" version="1.1" xmlns="http://www.w3.org/2000/svg" xmlns:xlink="http://www.w3.org/1999/xlink" xml:space="preserve" xmlns:serif="http://www.serif.com/" style="fill-rule:evenodd;clip-rule:evenodd;stroke-linejoin:round;stroke-miterlimit:2;">
    <g transform="matrix(1,0,0,1,-0.02,0.08)">
        <path d="M503.2,91.5C498.594,47.988 463.912,13.306 420.4,8.7C311.112,-3 200.888,-3 91.6,8.7C48.069,13.262 13.362,47.969 8.8,91.5C-2.9,200.788 -2.9,311.012 8.8,420.3C13.406,463.812 48.088,498.494 91.6,503.1C200.888,514.8 311.112,514.8 420.4,503.1C463.912,498.494 498.594,463.812 503.2,420.3C514.9,311.012 514.9,200.788 503.2,91.5Z" style="fill:rgb(60,52,83);fill-rule:nonzero;"/>
    </g>
    <g transform="matrix(0.639206,0,0,0.639206,92.5767,92.3632)">
        <path d="M410.332,160C366.238,160 330.332,124.117 330.332,80C330.332,35.883 366.238,0 410.332,0C454.43,0 490.332,35.883 490.332,80C490.332,124.117 454.43,160 410.332,160ZM410.332,32C383.879,32 362.332,53.523 362.332,80C362.332,106.477 383.879,128 410.332,128C436.785,128 458.332,106.477 458.332,80C458.332,53.523 436.785,32 410.332,32Z" style="fill:white;fill-rule:nonzero;"/>
        <path d="M410.332,512C366.238,512 330.332,476.117 330.332,432C330.332,387.883 366.238,352 410.332,352C454.43,352 490.332,387.883 490.332,432C490.332,476.117 454.43,512 410.332,512ZM410.332,384C383.879,384 362.332,405.523 362.332,432C362.332,458.477 383.879,480 410.332,480C436.785,480 458.332,458.477 458.332,432C458.332,405.523 436.785,384 410.332,384Z" style="fill:white;fill-rule:nonzero;"/>
        <path d="M101,336C56.902,336 21,300.117 21,256C21,211.883 56.902,176 101,176C145.098,176 181,211.883 181,256C181,300.117 145.098,336 101,336ZM101,208C74.547,208 53,229.523 53,256C53,282.477 74.547,304 101,304C127.453,304 149,282.477 149,256C149,229.523 127.453,208 101,208Z" style="fill:white;fill-rule:nonzero;"/>
        <path d="M156.703,240.426C151.133,240.426 145.715,237.523 142.793,232.363C138.418,224.684 141.086,214.91 148.766,210.539L346.719,97.684C354.375,93.27 364.168,95.957 368.52,103.66C372.895,111.34 370.227,121.109 362.547,125.484L164.594,238.336C162.098,239.742 159.391,240.426 156.703,240.426Z" style="fill:white;fill-rule:nonzero;"/>
        <path d="M354.633,416.426C351.945,416.426 349.234,415.742 346.738,414.316L148.785,301.461C141.105,297.09 138.441,287.316 142.813,279.637C147.164,271.937 156.938,269.27 164.617,273.664L362.566,386.516C370.246,390.891 372.914,400.66 368.543,408.34C365.598,413.523 360.18,416.426 354.633,416.426Z" style="fill:white;fill-rule:nonzero;"/>
    </g>
</svg>
