<?xml version="1.0" standalone="no"?>
<!DOCTYPE svg PUBLIC "-//W3C//DTD SVG 20010904//EN"
 "http://www.w3.org/TR/2001/REC-SVG-20010904/DTD/svg10.dtd">
<svg version="1.0" xmlns="http://www.w3.org/2000/svg"
 width="1000.000000pt" height="1000.000000pt" viewBox="0 0 1000.000000 1000.000000"
 preserveAspectRatio="xMidYMid meet">
<metadata>
Created by potrace 1.11, written by Peter Selinger 2001-2013
</metadata>
<g transform="translate(0.000000,1000.000000) scale(0.100000,-0.100000)"
fill="#000000" stroke="none">
<path d="M1 6570 l-1 -490 52 0 c29 -1 288 -1 575 -1 473 -1 523 -2 536 -17
12 -15 14 -242 13 -1552 -1 -844 0 -1543 2 -1552 4 -17 36 -18 491 -18 l487 0
-1 1558 c0 856 1 1562 3 1569 3 8 106 11 390 12 213 0 400 0 416 0 24 1 102
75 512 485 266 267 484 487 484 490 0 3 -891 6 -1979 6 l-1979 0 -1 -490z"/>
<path d="M3774 6028 l-1031 -1033 1 -1011 c1 -842 3 -1014 15 -1028 12 -15 57
-16 490 -14 l476 3 -1 135 c-2 197 -15 1198 -17 1313 l-2 97 794 794 794 794
1078 0 1079 0 0 -294 0 -294 -783 0 -784 0 0 -1275 0 -1275 2059 0 2058 0 0
2060 0 2060 -490 0 -490 0 0 -1569 0 -1569 -1078 0 -1079 0 0 294 0 294 783 0
784 0 0 1275 0 1275 -1813 0 -1812 0 -1031 -1032z"/>
</g>
</svg>
